<svg width="98" height="17" viewBox="0 0 98 17" fill="none" xmlns="http://www.w3.org/2000/svg">
<path opacity="0.3" d="M6.55322 5.83339H7.33322V9.83339H8.66656V5.83339H9.44656L7.99989 4.38672L6.55322 5.83339Z" fill="#C0C0C0"/>
<path d="M8.00016 2.5L3.3335 7.16667H6.00016V11.1667H10.0002V7.16667H12.6668L8.00016 2.5ZM8.66683 5.83333V9.83333H7.3335V5.83333H6.5535L8.00016 4.38667L9.44683 5.83333H8.66683ZM3.3335 12.5H12.6668V13.8333H3.3335V12.5Z" fill="#C0C0C0"/>
<path d="M23.14 13C23.06 13 22.988 12.972 22.924 12.916C22.868 12.852 22.84 12.78 22.84 12.7V4.9C22.84 4.812 22.868 4.74 22.924 4.684C22.988 4.628 23.06 4.6 23.14 4.6H28.744C28.832 4.6 28.904 4.628 28.96 4.684C29.016 4.74 29.044 4.812 29.044 4.9V6.028C29.044 6.108 29.016 6.18 28.96 6.244C28.904 6.3 28.832 6.328 28.744 6.328H24.916V7.948H28.48C28.568 7.948 28.64 7.98 28.696 8.044C28.752 8.1 28.78 8.172 28.78 8.26V9.304C28.78 9.384 28.752 9.456 28.696 9.52C28.64 9.576 28.568 9.604 28.48 9.604H24.916V11.272H28.84C28.928 11.272 29 11.3 29.056 11.356C29.112 11.412 29.14 11.484 29.14 11.572V12.7C29.14 12.78 29.112 12.852 29.056 12.916C29 12.972 28.928 13 28.84 13H23.14ZM30.0601 13C29.9881 13 29.9241 12.976 29.8681 12.928C29.8201 12.872 29.7961 12.812 29.7961 12.748C29.7961 12.692 29.8121 12.644 29.8441 12.604L32.4601 8.716L30.0361 4.996C30.0121 4.948 30.0001 4.9 30.0001 4.852C30.0001 4.788 30.0241 4.732 30.0721 4.684C30.1201 4.628 30.1801 4.6 30.2521 4.6H31.9921C32.0881 4.6 32.1681 4.624 32.2321 4.672C32.2961 4.72 32.3561 4.78 32.4121 4.852L33.8401 7.024L35.2921 4.852C35.3961 4.684 35.5361 4.6 35.7121 4.6H37.3681C37.4321 4.6 37.4881 4.628 37.5361 4.684C37.5921 4.732 37.6201 4.788 37.6201 4.852C37.6201 4.908 37.6041 4.956 37.5721 4.996L35.1361 8.704L37.7761 12.604C37.8001 12.636 37.8121 12.684 37.8121 12.748C37.8121 12.812 37.7881 12.872 37.7401 12.928C37.6921 12.976 37.6321 13 37.5601 13H35.7721C35.6041 13 35.4641 12.92 35.3521 12.76L33.7681 10.456L32.1961 12.76C32.1081 12.92 31.9721 13 31.7881 13H30.0601ZM39.0892 13C39.0092 13 38.9372 12.972 38.8732 12.916C38.8172 12.852 38.7892 12.78 38.7892 12.7V4.9C38.7892 4.812 38.8172 4.74 38.8732 4.684C38.9372 4.628 39.0092 4.6 39.0892 4.6H42.4492C43.4732 4.6 44.2772 4.836 44.8612 5.308C45.4532 5.78 45.7492 6.468 45.7492 7.372C45.7492 8.268 45.4572 8.944 44.8732 9.4C44.2892 9.848 43.4812 10.072 42.4492 10.072H41.0212V12.7C41.0212 12.788 40.9892 12.86 40.9252 12.916C40.8692 12.972 40.7972 13 40.7092 13H39.0892ZM42.3892 8.416C42.7412 8.416 43.0172 8.328 43.2172 8.152C43.4172 7.968 43.5172 7.7 43.5172 7.348C43.5172 7.02 43.4212 6.76 43.2292 6.568C43.0452 6.368 42.7652 6.268 42.3892 6.268H40.9852V8.416H42.3892ZM50.3306 13.12C49.2026 13.12 48.3146 12.844 47.6666 12.292C47.0186 11.74 46.6746 10.928 46.6346 9.856C46.6266 9.624 46.6226 9.28 46.6226 8.824C46.6226 8.36 46.6266 8.012 46.6346 7.78C46.6746 6.724 47.0226 5.912 47.6786 5.344C48.3426 4.768 49.2266 4.48 50.3306 4.48C51.4346 4.48 52.3186 4.768 52.9826 5.344C53.6466 5.912 53.9946 6.724 54.0266 7.78C54.0426 8.244 54.0506 8.592 54.0506 8.824C54.0506 9.048 54.0426 9.392 54.0266 9.856C53.9866 10.928 53.6426 11.74 52.9946 12.292C52.3466 12.844 51.4586 13.12 50.3306 13.12ZM50.3306 11.392C50.7706 11.392 51.1186 11.26 51.3746 10.996C51.6386 10.732 51.7786 10.328 51.7946 9.784C51.8106 9.32 51.8186 8.992 51.8186 8.8C51.8186 8.592 51.8106 8.264 51.7946 7.816C51.7786 7.272 51.6386 6.868 51.3746 6.604C51.1106 6.34 50.7626 6.208 50.3306 6.208C49.8986 6.208 49.5506 6.34 49.2866 6.604C49.0306 6.868 48.8906 7.272 48.8666 7.816C48.8586 8.04 48.8546 8.368 48.8546 8.8C48.8546 9.224 48.8586 9.552 48.8666 9.784C48.8906 10.328 49.0306 10.732 49.2866 10.996C49.5426 11.26 49.8906 11.392 50.3306 11.392ZM55.7416 13C55.6616 13 55.5896 12.972 55.5256 12.916C55.4696 12.852 55.4416 12.78 55.4416 12.7V4.9C55.4416 4.812 55.4696 4.74 55.5256 4.684C55.5896 4.628 55.6616 4.6 55.7416 4.6H59.0056C60.0536 4.6 60.8696 4.84 61.4536 5.32C62.0456 5.792 62.3416 6.464 62.3416 7.336C62.3416 7.896 62.2096 8.372 61.9456 8.764C61.6816 9.156 61.3176 9.456 60.8536 9.664L62.4976 12.616C62.5216 12.664 62.5336 12.708 62.5336 12.748C62.5336 12.812 62.5056 12.872 62.4496 12.928C62.4016 12.976 62.3456 13 62.2816 13H60.6856C60.4536 13 60.2896 12.892 60.1936 12.676L58.8256 10.036H57.6016V12.7C57.6016 12.788 57.5696 12.86 57.5056 12.916C57.4496 12.972 57.3776 13 57.2896 13H55.7416ZM58.9816 8.332C59.3496 8.332 59.6296 8.244 59.8216 8.068C60.0136 7.884 60.1096 7.632 60.1096 7.312C60.1096 6.992 60.0136 6.74 59.8216 6.556C59.6376 6.364 59.3576 6.268 58.9816 6.268H57.6016V8.332H58.9816ZM65.8044 13C65.7244 13 65.6524 12.972 65.5884 12.916C65.5324 12.852 65.5044 12.78 65.5044 12.7V6.484H63.3684C63.2884 6.484 63.2164 6.456 63.1524 6.4C63.0964 6.336 63.0684 6.264 63.0684 6.184V4.9C63.0684 4.812 63.0964 4.74 63.1524 4.684C63.2164 4.628 63.2884 4.6 63.3684 4.6H69.8244C69.9124 4.6 69.9844 4.628 70.0404 4.684C70.0964 4.74 70.1244 4.812 70.1244 4.9V6.184C70.1244 6.272 70.0964 6.344 70.0404 6.4C69.9844 6.456 69.9124 6.484 69.8244 6.484H67.6884V12.7C67.6884 12.78 67.6604 12.852 67.6044 12.916C67.5484 12.972 67.4764 13 67.3884 13H65.8044ZM76.9324 13.12C75.7884 13.12 74.8924 12.844 74.2444 12.292C73.6044 11.732 73.2644 10.924 73.2244 9.868C73.2164 9.652 73.2124 9.3 73.2124 8.812C73.2124 8.316 73.2164 7.956 73.2244 7.732C73.2644 6.692 73.6124 5.892 74.2684 5.332C74.9244 4.764 75.8124 4.48 76.9324 4.48C77.6364 4.48 78.2684 4.6 78.8284 4.84C79.3884 5.072 79.8284 5.408 80.1484 5.848C80.4764 6.28 80.6444 6.788 80.6524 7.372V7.396C80.6524 7.46 80.6244 7.516 80.5684 7.564C80.5204 7.604 80.4644 7.624 80.4004 7.624H78.7804C78.6764 7.624 78.5964 7.604 78.5404 7.564C78.4844 7.516 78.4364 7.432 78.3964 7.312C78.2844 6.904 78.1084 6.62 77.8684 6.46C77.6284 6.292 77.3124 6.208 76.9204 6.208C75.9764 6.208 75.4884 6.736 75.4564 7.792C75.4484 8.008 75.4444 8.34 75.4444 8.788C75.4444 9.236 75.4484 9.576 75.4564 9.808C75.4884 10.864 75.9764 11.392 76.9204 11.392C77.3124 11.392 77.6324 11.308 77.8804 11.14C78.1284 10.964 78.3004 10.68 78.3964 10.288C78.4284 10.168 78.4724 10.088 78.5284 10.048C78.5844 10 78.6684 9.976 78.7804 9.976H80.4004C80.4724 9.976 80.5324 10 80.5804 10.048C80.6364 10.096 80.6604 10.156 80.6524 10.228C80.6444 10.812 80.4764 11.324 80.1484 11.764C79.8284 12.196 79.3884 12.532 78.8284 12.772C78.2684 13.004 77.6364 13.12 76.9324 13.12ZM85.0462 13.12C84.2862 13.12 83.6342 13.008 83.0902 12.784C82.5462 12.56 82.1342 12.268 81.8542 11.908C81.5822 11.54 81.4382 11.14 81.4222 10.708C81.4222 10.644 81.4462 10.588 81.4942 10.54C81.5502 10.484 81.6142 10.456 81.6862 10.456H83.1982C83.2942 10.456 83.3702 10.476 83.4262 10.516C83.4902 10.548 83.5542 10.6 83.6182 10.672C83.7222 10.88 83.8902 11.052 84.1222 11.188C84.3542 11.324 84.6622 11.392 85.0462 11.392C85.5022 11.392 85.8502 11.32 86.0902 11.176C86.3302 11.032 86.4502 10.836 86.4502 10.588C86.4502 10.412 86.3862 10.268 86.2582 10.156C86.1382 10.044 85.9462 9.944 85.6822 9.856C85.4182 9.768 85.0262 9.668 84.5062 9.556C83.5462 9.356 82.8262 9.064 82.3462 8.68C81.8742 8.288 81.6382 7.732 81.6382 7.012C81.6382 6.524 81.7742 6.088 82.0462 5.704C82.3182 5.32 82.7062 5.02 83.2102 4.804C83.7142 4.588 84.3022 4.48 84.9742 4.48C85.6702 4.48 86.2742 4.6 86.7862 4.84C87.2982 5.08 87.6862 5.384 87.9502 5.752C88.2222 6.112 88.3662 6.468 88.3822 6.82C88.3822 6.892 88.3582 6.952 88.3102 7C88.2622 7.048 88.2022 7.072 88.1302 7.072H86.5462C86.4502 7.072 86.3702 7.056 86.3062 7.024C86.2502 6.992 86.1982 6.94 86.1502 6.868C86.1022 6.684 85.9702 6.528 85.7542 6.4C85.5462 6.272 85.2862 6.208 84.9742 6.208C84.6142 6.208 84.3382 6.272 84.1462 6.4C83.9542 6.528 83.8582 6.716 83.8582 6.964C83.8582 7.132 83.9102 7.272 84.0142 7.384C84.1262 7.496 84.3022 7.6 84.5422 7.696C84.7902 7.784 85.1422 7.876 85.5982 7.972C86.3422 8.108 86.9342 8.28 87.3742 8.488C87.8222 8.688 88.1502 8.952 88.3582 9.28C88.5662 9.6 88.6702 10.004 88.6702 10.492C88.6702 11.028 88.5142 11.496 88.2022 11.896C87.8982 12.288 87.4702 12.592 86.9182 12.808C86.3742 13.016 85.7502 13.12 85.0462 13.12ZM91.9783 13C91.7223 13 91.5583 12.88 91.4863 12.64L89.0383 4.96L89.0143 4.852C89.0143 4.788 89.0383 4.732 89.0863 4.684C89.1423 4.628 89.2063 4.6 89.2783 4.6H90.7663C90.8783 4.6 90.9703 4.632 91.0423 4.696C91.1223 4.76 91.1743 4.832 91.1983 4.912L92.9023 10.456L94.5943 4.912C94.6183 4.832 94.6663 4.76 94.7383 4.696C94.8183 4.632 94.9143 4.6 95.0263 4.6H96.5263C96.5903 4.6 96.6463 4.628 96.6943 4.684C96.7503 4.732 96.7783 4.788 96.7783 4.852L96.7543 4.96L94.3063 12.64C94.2343 12.88 94.0703 13 93.8143 13H91.9783Z" fill="#C0C0C0"/>
</svg>
